<?xml version="1.0" encoding="UTF-8"?>
<svg xmlns="http://www.w3.org/2000/svg" xmlns:xlink="http://www.w3.org/1999/xlink" width="103pt" height="36pt" viewBox="0 0 103 36">
<path fill-rule="nonzero" fill="rgb(7.450867%, 20.391846%, 36.862183%)" fill-opacity="1" d="M 27.320312 4.148438 L 29.945312 4.148438 C 30.34375 4.148438 30.753906 4.15625 31.1875 4.179688 C 31.609375 4.199219 32.027344 4.261719 32.4375 4.363281 C 32.84375 4.46875 33.230469 4.625 33.59375 4.847656 C 33.953125 5.066406 34.273438 5.367188 34.550781 5.757812 C 34.824219 6.148438 35.039062 6.636719 35.203125 7.234375 C 35.363281 7.824219 35.441406 8.550781 35.441406 9.410156 L 35.441406 13.710938 C 35.441406 14.566406 35.363281 15.296875 35.203125 15.886719 C 35.039062 16.484375 34.824219 16.976562 34.550781 17.367188 C 34.273438 17.757812 33.960938 18.058594 33.59375 18.277344 C 33.230469 18.492188 32.851562 18.65625 32.4375 18.761719 C 32.027344 18.867188 31.617188 18.925781 31.1875 18.945312 C 30.761719 18.96875 30.351562 18.972656 29.945312 18.972656 L 27.320312 18.972656 Z M 30.5 17.402344 C 30.953125 17.402344 31.328125 17.351562 31.625 17.246094 C 31.921875 17.140625 32.15625 16.960938 32.324219 16.699219 C 32.496094 16.4375 32.617188 16.074219 32.679688 15.625 C 32.742188 15.171875 32.777344 14.59375 32.777344 13.90625 L 32.777344 9.304688 C 32.777344 8.609375 32.742188 8.039062 32.679688 7.582031 C 32.617188 7.128906 32.496094 6.773438 32.324219 6.511719 C 32.15625 6.246094 31.921875 6.0625 31.625 5.960938 C 31.328125 5.855469 30.953125 5.804688 30.5 5.804688 L 29.855469 5.804688 L 29.855469 17.417969 L 30.5 17.417969 Z M 30.5 17.402344 "/>
<path fill-rule="nonzero" fill="rgb(7.450867%, 20.391846%, 36.862183%)" fill-opacity="1" d="M 38.90625 4.148438 L 41.816406 4.148438 L 44.902344 18.972656 L 42.347656 18.972656 L 41.886719 16.316406 L 38.839844 16.316406 L 38.402344 18.972656 L 35.832031 18.972656 L 38.910156 4.148438 Z M 41.589844 14.621094 L 40.414062 7.234375 L 40.308594 7.234375 L 39.125 14.621094 Z M 41.589844 14.621094 "/>
<path fill-rule="nonzero" fill="rgb(7.450867%, 20.391846%, 36.862183%)" fill-opacity="1" d="M 45.894531 4.148438 L 47.949219 4.148438 L 51.996094 14.066406 L 52.050781 14.066406 C 52.03125 13.832031 52.007812 13.578125 51.972656 13.292969 C 51.9375 13.007812 51.910156 12.6875 51.886719 12.328125 C 51.859375 11.964844 51.839844 11.558594 51.816406 11.097656 C 51.796875 10.640625 51.789062 10.121094 51.789062 9.554688 L 51.789062 4.148438 L 54.054688 4.148438 L 54.054688 18.972656 L 51.988281 18.972656 L 47.964844 9.3125 L 47.886719 9.3125 C 47.90625 9.574219 47.929688 9.851562 47.964844 10.15625 C 48 10.464844 48.027344 10.820312 48.050781 11.230469 C 48.078125 11.644531 48.097656 12.121094 48.121094 12.667969 C 48.140625 13.214844 48.148438 13.863281 48.148438 14.617188 L 48.148438 18.972656 L 45.902344 18.972656 L 45.902344 4.148438 Z M 45.894531 4.148438 "/>
<path fill-rule="nonzero" fill="rgb(7.450867%, 20.391846%, 36.862183%)" fill-opacity="1" d="M 56.230469 4.148438 L 58.777344 4.148438 L 58.777344 15.015625 C 58.777344 15.476562 58.808594 15.859375 58.855469 16.164062 C 58.90625 16.472656 58.992188 16.714844 59.105469 16.898438 C 59.21875 17.082031 59.367188 17.210938 59.542969 17.289062 C 59.71875 17.367188 59.933594 17.402344 60.179688 17.402344 C 60.429688 17.402344 60.640625 17.367188 60.832031 17.289062 C 61.015625 17.210938 61.171875 17.082031 61.292969 16.898438 C 61.414062 16.714844 61.503906 16.472656 61.570312 16.164062 C 61.632812 15.859375 61.660156 15.476562 61.660156 15.015625 L 61.660156 4.148438 L 64.183594 4.148438 L 64.183594 14.417969 C 64.183594 15.140625 64.117188 15.761719 63.984375 16.273438 C 63.855469 16.785156 63.679688 17.21875 63.46875 17.566406 C 63.253906 17.914062 63.007812 18.191406 62.730469 18.390625 C 62.453125 18.597656 62.164062 18.746094 61.875 18.855469 C 61.574219 18.960938 61.285156 19.03125 60.988281 19.058594 C 60.699219 19.089844 60.429688 19.101562 60.1875 19.101562 C 59.945312 19.101562 59.683594 19.089844 59.394531 19.058594 C 59.105469 19.03125 58.8125 18.960938 58.523438 18.855469 C 58.234375 18.746094 57.949219 18.589844 57.671875 18.390625 C 57.398438 18.191406 57.15625 17.914062 56.9375 17.566406 C 56.722656 17.21875 56.546875 16.792969 56.425781 16.28125 C 56.300781 15.769531 56.234375 15.148438 56.234375 14.417969 L 56.234375 4.148438 Z M 56.230469 4.148438 "/>
<path fill-rule="nonzero" fill="rgb(7.450867%, 20.391846%, 36.862183%)" fill-opacity="1" d="M 66.347656 4.148438 L 68.90625 4.148438 C 69.28125 4.148438 69.675781 4.164062 70.082031 4.183594 C 70.484375 4.207031 70.875 4.257812 71.265625 4.335938 C 71.648438 4.414062 72.015625 4.519531 72.355469 4.667969 C 72.703125 4.816406 73 5.015625 73.261719 5.265625 C 73.515625 5.515625 73.722656 5.820312 73.878906 6.191406 C 74.027344 6.558594 74.105469 7 74.105469 7.511719 L 74.105469 8.230469 C 74.105469 8.621094 74.039062 8.984375 73.914062 9.320312 C 73.785156 9.644531 73.617188 9.9375 73.410156 10.191406 C 73.203125 10.441406 72.964844 10.65625 72.695312 10.820312 C 72.425781 10.984375 72.15625 11.097656 71.875 11.152344 L 71.875 11.222656 C 72.703125 11.359375 73.324219 11.707031 73.742188 12.269531 C 74.160156 12.832031 74.375 13.554688 74.375 14.4375 L 74.375 15.191406 C 74.375 15.730469 74.308594 16.195312 74.175781 16.59375 C 74.039062 16.992188 73.855469 17.324219 73.617188 17.609375 C 73.375 17.886719 73.089844 18.121094 72.757812 18.300781 C 72.425781 18.476562 72.0625 18.617188 71.667969 18.71875 C 71.269531 18.816406 70.847656 18.890625 70.398438 18.925781 C 69.953125 18.960938 69.488281 18.980469 69.011719 18.980469 L 66.355469 18.980469 L 66.355469 4.148438 Z M 69.324219 10.492188 C 69.664062 10.492188 69.96875 10.457031 70.25 10.386719 C 70.527344 10.3125 70.769531 10.199219 70.964844 10.042969 C 71.164062 9.886719 71.320312 9.6875 71.425781 9.445312 C 71.53125 9.199219 71.589844 8.90625 71.589844 8.558594 L 71.589844 7.953125 C 71.589844 7.605469 71.554688 7.300781 71.476562 7.035156 C 71.398438 6.773438 71.269531 6.546875 71.09375 6.359375 C 70.917969 6.175781 70.683594 6.035156 70.394531 5.941406 C 70.101562 5.847656 69.75 5.800781 69.332031 5.800781 L 68.84375 5.800781 L 68.84375 10.507812 L 69.332031 10.507812 Z M 69.558594 17.410156 C 69.898438 17.410156 70.203125 17.375 70.476562 17.296875 C 70.753906 17.21875 70.996094 17.097656 71.191406 16.933594 C 71.390625 16.769531 71.546875 16.558594 71.652344 16.308594 C 71.761719 16.050781 71.816406 15.753906 71.816406 15.40625 L 71.816406 14.253906 C 71.816406 13.90625 71.78125 13.597656 71.695312 13.328125 C 71.617188 13.058594 71.492188 12.832031 71.3125 12.652344 C 71.136719 12.46875 70.902344 12.332031 70.613281 12.234375 C 70.328125 12.140625 69.976562 12.089844 69.558594 12.089844 L 68.835938 12.089844 L 68.835938 17.425781 L 69.558594 17.425781 Z M 69.558594 17.410156 "/>
<path fill-rule="nonzero" fill="rgb(7.450867%, 20.391846%, 36.862183%)" fill-opacity="1" d="M 75.960938 4.148438 L 78.488281 4.148438 L 78.488281 18.972656 L 75.960938 18.972656 Z M 75.960938 4.148438 "/>
<path fill-rule="nonzero" fill="rgb(7.450867%, 20.391846%, 36.862183%)" fill-opacity="1" d="M 80.664062 4.148438 L 83.210938 4.148438 L 83.210938 15.015625 C 83.210938 15.476562 83.242188 15.859375 83.289062 16.164062 C 83.339844 16.472656 83.425781 16.714844 83.539062 16.898438 C 83.652344 17.082031 83.800781 17.210938 83.976562 17.289062 C 84.15625 17.367188 84.367188 17.402344 84.613281 17.402344 C 84.863281 17.402344 85.074219 17.367188 85.265625 17.289062 C 85.449219 17.210938 85.605469 17.082031 85.726562 16.898438 C 85.847656 16.714844 85.9375 16.472656 86.003906 16.164062 C 86.066406 15.859375 86.09375 15.476562 86.09375 15.015625 L 86.09375 4.148438 L 88.617188 4.148438 L 88.617188 14.417969 C 88.617188 15.140625 88.554688 15.761719 88.417969 16.273438 C 88.289062 16.785156 88.113281 17.21875 87.902344 17.566406 C 87.6875 17.914062 87.441406 18.191406 87.164062 18.390625 C 86.886719 18.597656 86.597656 18.746094 86.308594 18.855469 C 86.011719 18.960938 85.71875 19.03125 85.421875 19.058594 C 85.132812 19.089844 84.863281 19.101562 84.621094 19.101562 C 84.382812 19.101562 84.121094 19.089844 83.828125 19.058594 C 83.539062 19.03125 83.25 18.960938 82.957031 18.855469 C 82.667969 18.746094 82.382812 18.589844 82.109375 18.390625 C 81.832031 18.191406 81.589844 17.914062 81.371094 17.566406 C 81.160156 17.21875 80.988281 16.792969 80.863281 16.28125 C 80.734375 15.769531 80.671875 15.148438 80.671875 14.417969 L 80.671875 4.148438 Z M 80.664062 4.148438 "/>
<path fill-rule="nonzero" fill="rgb(7.450867%, 20.391846%, 36.862183%)" fill-opacity="1" d="M 90.148438 15.964844 C 90.148438 15.648438 90.167969 15.355469 90.210938 15.085938 C 90.253906 14.816406 90.316406 14.523438 90.402344 14.210938 L 92.363281 14.210938 L 92.363281 14.929688 C 92.363281 15.328125 92.390625 15.683594 92.449219 15.988281 C 92.503906 16.292969 92.597656 16.558594 92.726562 16.761719 C 92.851562 16.976562 93.023438 17.132812 93.234375 17.238281 C 93.449219 17.347656 93.703125 17.402344 94.015625 17.402344 C 94.496094 17.402344 94.863281 17.289062 95.117188 17.054688 C 95.375 16.820312 95.5 16.480469 95.5 16.023438 C 95.5 15.789062 95.480469 15.582031 95.445312 15.382812 C 95.410156 15.191406 95.34375 15 95.261719 14.808594 C 95.175781 14.617188 95.054688 14.417969 94.90625 14.203125 C 94.757812 13.988281 94.566406 13.753906 94.332031 13.492188 L 91.699219 10.703125 C 91.230469 10.171875 90.871094 9.636719 90.613281 9.097656 C 90.359375 8.558594 90.230469 7.980469 90.230469 7.363281 C 90.230469 6.871094 90.316406 6.417969 90.492188 6.011719 C 90.664062 5.601562 90.917969 5.246094 91.246094 4.945312 C 91.570312 4.648438 91.972656 4.414062 92.449219 4.25 C 92.929688 4.085938 93.46875 4 94.078125 4 C 94.8125 4 95.421875 4.09375 95.917969 4.277344 C 96.40625 4.460938 96.804688 4.703125 97.09375 5.007812 C 97.386719 5.308594 97.597656 5.648438 97.71875 6.019531 C 97.839844 6.390625 97.894531 6.765625 97.894531 7.144531 C 97.894531 7.460938 97.867188 7.753906 97.808594 8.023438 C 97.753906 8.292969 97.691406 8.59375 97.617188 8.914062 L 95.664062 8.914062 L 95.664062 8.210938 C 95.664062 7.421875 95.535156 6.816406 95.28125 6.402344 C 95.027344 5.984375 94.617188 5.769531 94.042969 5.769531 C 93.566406 5.769531 93.214844 5.882812 92.980469 6.117188 C 92.746094 6.355469 92.625 6.667969 92.625 7.058594 C 92.625 7.261719 92.640625 7.457031 92.675781 7.621094 C 92.710938 7.789062 92.761719 7.9375 92.832031 8.082031 C 92.902344 8.222656 92.980469 8.359375 93.078125 8.492188 C 93.179688 8.628906 93.285156 8.765625 93.410156 8.914062 L 96.351562 12.070312 C 96.882812 12.6875 97.292969 13.285156 97.582031 13.855469 C 97.867188 14.421875 98.015625 15.027344 98.015625 15.660156 C 98.015625 16.1875 97.921875 16.664062 97.738281 17.082031 C 97.554688 17.503906 97.285156 17.863281 96.945312 18.15625 C 96.597656 18.449219 96.179688 18.675781 95.691406 18.839844 C 95.203125 18.996094 94.652344 19.082031 94.042969 19.082031 C 93.285156 19.082031 92.660156 18.988281 92.160156 18.8125 C 91.664062 18.632812 91.265625 18.390625 90.96875 18.101562 C 90.671875 17.808594 90.464844 17.46875 90.34375 17.089844 C 90.226562 16.714844 90.167969 16.328125 90.167969 15.9375 Z M 90.148438 15.964844 "/>
<path fill-rule="nonzero" fill="rgb(7.450867%, 20.391846%, 36.862183%)" fill-opacity="1" d="M 17.214844 17.820312 C 15.820312 14.121094 13.992188 9.867188 11.542969 5 C 11.5625 10.5 11.414062 14.355469 10.335938 18.585938 C 9.316406 22.691406 7.382812 27.171875 5.199219 31 C 11.125 30.199219 16.6875 26.949219 21 29.441406 C 19.628906 24.832031 18.636719 21.605469 17.222656 17.820312 Z M 9.078125 9.007812 L 4 24.03125 L 7.433594 23.007812 Z M 9.078125 9.007812 "/>
<path fill-rule="nonzero" fill="rgb(57.255554%, 92.156982%, 68.62793%)" fill-opacity="1" d="M 26 23 C 26 21.894531 26.894531 21 28 21 L 97 21 C 98.105469 21 99 21.894531 99 23 L 99 30 C 99 31.105469 98.105469 32 97 32 L 28 32 C 26.894531 32 26 31.105469 26 30 Z M 26 23 "/>
<path fill-rule="nonzero" fill="rgb(7.450867%, 20.391846%, 36.862183%)" fill-opacity="1" d="M 94.9375 27.785156 C 94.9375 28.320312 94.800781 28.730469 94.53125 29.015625 C 94.261719 29.296875 93.875 29.4375 93.367188 29.4375 C 92.871094 29.4375 92.445312 29.34375 92.097656 29.144531 L 92.097656 28.09375 C 92.523438 28.375 92.917969 28.515625 93.273438 28.515625 C 93.476562 28.515625 93.628906 28.457031 93.730469 28.34375 C 93.835938 28.234375 93.886719 28.082031 93.886719 27.890625 C 93.886719 27.699219 93.824219 27.527344 93.703125 27.371094 C 93.582031 27.210938 93.378906 27.035156 93.097656 26.84375 C 92.851562 26.671875 92.667969 26.511719 92.539062 26.359375 C 92.414062 26.203125 92.316406 26.027344 92.246094 25.832031 C 92.179688 25.640625 92.144531 25.417969 92.144531 25.160156 C 92.144531 24.671875 92.28125 24.285156 92.550781 24 C 92.824219 23.710938 93.191406 23.566406 93.648438 23.566406 C 94.085938 23.566406 94.507812 23.691406 94.910156 23.9375 L 94.558594 24.785156 C 94.433594 24.714844 94.300781 24.648438 94.164062 24.59375 C 94.027344 24.535156 93.882812 24.503906 93.726562 24.503906 C 93.554688 24.503906 93.421875 24.5625 93.328125 24.675781 C 93.238281 24.789062 93.191406 24.941406 93.191406 25.140625 C 93.191406 25.332031 93.246094 25.5 93.355469 25.640625 C 93.46875 25.785156 93.660156 25.949219 93.9375 26.128906 C 94.308594 26.378906 94.570312 26.636719 94.714844 26.894531 C 94.863281 27.15625 94.9375 27.453125 94.9375 27.785156 Z M 94.9375 27.785156 "/>
<path fill-rule="nonzero" fill="rgb(7.450867%, 20.391846%, 36.862183%)" fill-opacity="1" d="M 90.929688 29.359375 L 89.632812 29.359375 L 87.867188 25.222656 L 87.816406 25.222656 C 87.878906 25.539062 87.914062 25.878906 87.914062 26.238281 L 87.914062 29.359375 L 86.929688 29.359375 L 86.929688 23.648438 L 88.234375 23.648438 L 89.984375 27.742188 L 90.027344 27.742188 C 89.976562 27.46875 89.953125 27.144531 89.953125 26.765625 L 89.953125 23.648438 L 90.929688 23.648438 Z M 90.929688 29.359375 "/>
<path fill-rule="nonzero" fill="rgb(7.450867%, 20.391846%, 36.862183%)" fill-opacity="1" d="M 85.691406 26.5 C 85.691406 27.441406 85.515625 28.171875 85.160156 28.675781 C 84.808594 29.1875 84.300781 29.4375 83.640625 29.4375 C 82.980469 29.4375 82.472656 29.1875 82.117188 28.683594 C 81.765625 28.171875 81.585938 27.441406 81.585938 26.488281 C 81.585938 25.546875 81.765625 24.820312 82.117188 24.316406 C 82.472656 23.8125 82.984375 23.5625 83.648438 23.5625 C 84.308594 23.5625 84.8125 23.8125 85.164062 24.320312 C 85.515625 24.828125 85.691406 25.550781 85.691406 26.5 Z M 82.671875 26.5 C 82.671875 27.148438 82.753906 27.644531 82.917969 27.984375 C 83.082031 28.328125 83.324219 28.5 83.640625 28.5 C 84.28125 28.5 84.601562 27.832031 84.601562 26.5 C 84.601562 25.164062 84.285156 24.5 83.648438 24.5 C 83.328125 24.5 83.082031 24.667969 82.917969 25.007812 C 82.753906 25.347656 82.671875 25.84375 82.671875 26.5 Z M 82.671875 26.5 "/>
<path fill-rule="nonzero" fill="rgb(7.450867%, 20.391846%, 36.862183%)" fill-opacity="1" d="M 79.15625 29.359375 L 79.15625 23.648438 L 80.15625 23.648438 L 80.15625 29.359375 Z M 79.15625 29.359375 "/>
<path fill-rule="nonzero" fill="rgb(7.450867%, 20.391846%, 36.862183%)" fill-opacity="1" d="M 76.855469 29.359375 L 75.796875 29.359375 L 75.796875 24.582031 L 74.703125 24.582031 L 74.703125 23.648438 L 77.949219 23.648438 L 77.949219 24.582031 L 76.855469 24.582031 Z M 76.855469 29.359375 "/>
<path fill-rule="nonzero" fill="rgb(7.450867%, 20.391846%, 36.862183%)" fill-opacity="1" d="M 73.714844 23.652344 L 73.714844 27.34375 C 73.714844 28.027344 73.5625 28.546875 73.253906 28.90625 C 72.945312 29.261719 72.503906 29.4375 71.921875 29.4375 C 71.355469 29.4375 70.921875 29.261719 70.625 28.90625 C 70.328125 28.550781 70.179688 28.027344 70.179688 27.328125 L 70.179688 23.652344 L 71.234375 23.652344 L 71.234375 27.40625 C 71.234375 28.132812 71.476562 28.5 71.957031 28.5 C 72.179688 28.5 72.355469 28.40625 72.476562 28.21875 C 72.597656 28.035156 72.660156 27.773438 72.660156 27.433594 L 72.660156 23.652344 Z M 73.714844 23.652344 "/>
<path fill-rule="nonzero" fill="rgb(7.450867%, 20.391846%, 36.862183%)" fill-opacity="1" d="M 66.585938 29.359375 L 66.585938 23.648438 L 67.648438 23.648438 L 67.648438 28.429688 L 69.121094 28.429688 L 69.121094 29.359375 Z M 66.585938 29.359375 "/>
<path fill-rule="nonzero" fill="rgb(7.450867%, 20.391846%, 36.862183%)" fill-opacity="1" d="M 65.347656 26.5 C 65.347656 27.441406 65.171875 28.171875 64.816406 28.675781 C 64.464844 29.1875 63.957031 29.4375 63.296875 29.4375 C 62.636719 29.4375 62.128906 29.1875 61.773438 28.683594 C 61.421875 28.171875 61.242188 27.441406 61.242188 26.488281 C 61.242188 25.546875 61.421875 24.820312 61.773438 24.316406 C 62.128906 23.8125 62.640625 23.5625 63.304688 23.5625 C 63.964844 23.5625 64.46875 23.8125 64.820312 24.320312 C 65.171875 24.828125 65.347656 25.550781 65.347656 26.5 Z M 62.328125 26.5 C 62.328125 27.148438 62.410156 27.644531 62.574219 27.984375 C 62.738281 28.328125 62.980469 28.5 63.296875 28.5 C 63.9375 28.5 64.257812 27.832031 64.257812 26.5 C 64.257812 25.164062 63.941406 24.5 63.304688 24.5 C 62.984375 24.5 62.738281 24.667969 62.574219 25.007812 C 62.410156 25.347656 62.328125 25.84375 62.328125 26.5 Z M 62.328125 26.5 "/>
<path fill-rule="nonzero" fill="rgb(7.450867%, 20.391846%, 36.862183%)" fill-opacity="1" d="M 60.316406 27.785156 C 60.316406 28.320312 60.179688 28.730469 59.910156 29.015625 C 59.640625 29.296875 59.253906 29.4375 58.746094 29.4375 C 58.246094 29.4375 57.824219 29.34375 57.476562 29.144531 L 57.476562 28.09375 C 57.902344 28.375 58.292969 28.515625 58.652344 28.515625 C 58.855469 28.515625 59.007812 28.457031 59.109375 28.34375 C 59.210938 28.234375 59.265625 28.082031 59.265625 27.890625 C 59.265625 27.699219 59.203125 27.527344 59.082031 27.371094 C 58.957031 27.210938 58.757812 27.035156 58.476562 26.84375 C 58.230469 26.671875 58.042969 26.511719 57.917969 26.359375 C 57.792969 26.203125 57.695312 26.027344 57.625 25.832031 C 57.554688 25.640625 57.523438 25.417969 57.523438 25.160156 C 57.523438 24.671875 57.65625 24.285156 57.929688 24 C 58.203125 23.710938 58.566406 23.566406 59.027344 23.566406 C 59.464844 23.566406 59.882812 23.691406 60.289062 23.9375 L 59.9375 24.785156 C 59.8125 24.714844 59.679688 24.648438 59.542969 24.59375 C 59.40625 24.535156 59.261719 24.503906 59.105469 24.503906 C 58.933594 24.503906 58.800781 24.5625 58.707031 24.675781 C 58.613281 24.789062 58.570312 24.941406 58.570312 25.140625 C 58.570312 25.332031 58.625 25.5 58.734375 25.640625 C 58.84375 25.785156 59.039062 25.949219 59.316406 26.128906 C 59.6875 26.378906 59.945312 26.636719 60.09375 26.894531 C 60.242188 27.15625 60.316406 27.453125 60.316406 27.785156 Z M 60.316406 27.785156 "/>
<path fill-rule="nonzero" fill="rgb(7.450867%, 20.391846%, 36.862183%)" fill-opacity="1" d="M 53.925781 29.359375 L 52.863281 29.359375 L 52.863281 26.859375 L 51.460938 26.859375 L 51.460938 29.359375 L 50.398438 29.359375 L 50.398438 23.648438 L 51.460938 23.648438 L 51.460938 25.921875 L 52.863281 25.921875 L 52.863281 23.648438 L 53.925781 23.648438 Z M 53.925781 29.359375 "/>
<path fill-rule="nonzero" fill="rgb(7.450867%, 20.391846%, 36.862183%)" fill-opacity="1" d="M 48.191406 24.5 C 47.886719 24.5 47.644531 24.675781 47.46875 25.03125 C 47.292969 25.390625 47.207031 25.886719 47.207031 26.519531 C 47.207031 27.84375 47.550781 28.503906 48.242188 28.503906 C 48.542969 28.503906 48.859375 28.410156 49.191406 28.21875 L 49.191406 29.160156 C 48.910156 29.347656 48.554688 29.4375 48.121094 29.4375 C 47.476562 29.4375 46.980469 29.183594 46.636719 28.671875 C 46.292969 28.160156 46.121094 27.441406 46.121094 26.515625 C 46.121094 25.585938 46.296875 24.863281 46.652344 24.34375 C 47.007812 23.828125 47.503906 23.566406 48.136719 23.566406 C 48.34375 23.566406 48.542969 23.597656 48.734375 23.65625 C 48.925781 23.710938 49.132812 23.8125 49.351562 23.953125 L 49 24.816406 C 48.882812 24.738281 48.757812 24.664062 48.625 24.597656 C 48.492188 24.53125 48.347656 24.5 48.191406 24.5 Z M 48.191406 24.5 "/>
<path fill-rule="nonzero" fill="rgb(7.450867%, 20.391846%, 36.862183%)" fill-opacity="1" d="M 45.0625 29.359375 L 42.488281 29.359375 L 42.488281 23.648438 L 45.0625 23.648438 L 45.0625 24.566406 L 43.550781 24.566406 L 43.550781 25.925781 L 44.953125 25.925781 L 44.953125 26.847656 L 43.550781 26.847656 L 43.550781 28.429688 L 45.0625 28.429688 Z M 45.0625 29.359375 "/>
<path fill-rule="nonzero" fill="rgb(7.450867%, 20.391846%, 36.862183%)" fill-opacity="1" d="M 40.382812 29.359375 L 39.324219 29.359375 L 39.324219 24.582031 L 38.230469 24.582031 L 38.230469 23.648438 L 41.476562 23.648438 L 41.476562 24.582031 L 40.382812 24.582031 Z M 40.382812 29.359375 "/>
<path fill-rule="nonzero" fill="rgb(7.450867%, 20.391846%, 36.862183%)" fill-opacity="1" d="M 37.5 26.453125 C 37.5 27.394531 37.308594 28.113281 36.921875 28.613281 C 36.539062 29.113281 35.988281 29.359375 35.265625 29.359375 L 33.867188 29.359375 L 33.867188 23.648438 L 35.394531 23.648438 C 36.058594 23.648438 36.578125 23.894531 36.945312 24.390625 C 37.316406 24.878906 37.5 25.566406 37.5 26.453125 Z M 36.410156 26.484375 C 36.410156 25.207031 36.058594 24.566406 35.355469 24.566406 L 34.929688 24.566406 L 34.929688 28.429688 L 35.273438 28.429688 C 35.664062 28.429688 35.949219 28.269531 36.132812 27.949219 C 36.320312 27.621094 36.410156 27.132812 36.410156 26.484375 Z M 36.410156 26.484375 "/>
<path fill-rule="nonzero" fill="rgb(7.450867%, 20.391846%, 36.862183%)" fill-opacity="1" d="M 32.636719 29.359375 L 30.0625 29.359375 L 30.0625 23.648438 L 32.636719 23.648438 L 32.636719 24.566406 L 31.125 24.566406 L 31.125 25.925781 L 32.527344 25.925781 L 32.527344 26.847656 L 31.125 26.847656 L 31.125 28.429688 L 32.636719 28.429688 Z M 32.636719 29.359375 "/>
</svg>
